<svg xmlns="http://www.w3.org/2000/svg" xmlns:xlink="http://www.w3.org/1999/xlink" width="500" zoomAndPan="magnify" viewBox="0 0 375 374.999991" height="500" preserveAspectRatio="xMidYMid meet" version="1.0"><defs><g/><clipPath id="e1dbecff94"><path d="M 57.417969 74 L 317.667969 74 L 317.667969 171 L 57.417969 171 Z M 57.417969 74 " clip-rule="nonzero"/></clipPath><clipPath id="b5ac90d5b6"><path d="M 57.417969 86 L 317.667969 86 L 317.667969 180 L 57.417969 180 Z M 57.417969 86 " clip-rule="nonzero"/></clipPath><clipPath id="7c87f31ab7"><path d="M 57.417969 233 L 317.667969 233 L 317.667969 307.5 L 57.417969 307.5 Z M 57.417969 233 " clip-rule="nonzero"/></clipPath><clipPath id="900bfc2ecd"><path d="M 154.109375 247.0625 L 159.800781 247.0625 L 159.800781 252.753906 L 154.109375 252.753906 Z M 154.109375 247.0625 " clip-rule="nonzero"/></clipPath><clipPath id="375d242952"><path d="M 156.953125 247.0625 C 155.382812 247.0625 154.109375 248.335938 154.109375 249.90625 C 154.109375 251.480469 155.382812 252.753906 156.953125 252.753906 C 158.523438 252.753906 159.800781 251.480469 159.800781 249.90625 C 159.800781 248.335938 158.523438 247.0625 156.953125 247.0625 Z M 156.953125 247.0625 " clip-rule="nonzero"/></clipPath><clipPath id="de78803e4e"><path d="M 215.199219 247.0625 L 220.890625 247.0625 L 220.890625 252.753906 L 215.199219 252.753906 Z M 215.199219 247.0625 " clip-rule="nonzero"/></clipPath><clipPath id="cdf365cc94"><path d="M 218.046875 247.0625 C 216.476562 247.0625 215.199219 248.335938 215.199219 249.90625 C 215.199219 251.480469 216.476562 252.753906 218.046875 252.753906 C 219.617188 252.753906 220.890625 251.480469 220.890625 249.90625 C 220.890625 248.335938 219.617188 247.0625 218.046875 247.0625 Z M 218.046875 247.0625 " clip-rule="nonzero"/></clipPath></defs><g clip-path="url(#e1dbecff94)"><path fill="#000000" d="M 188.914062 74.246094 C 188.445312 74.238281 187.96875 74.230469 187.5 74.230469 C 131.523438 74.230469 84.765625 113.675781 73.480469 166.28125 L 57.492188 166.28125 L 57.492188 170.8125 L 77.195312 170.8125 L 77.195312 170.722656 C 86.683594 118.414062 132.449219 78.742188 187.492188 78.742188 L 187.558594 78.742188 C 187.878906 77.238281 188.3125 75.699219 188.914062 74.246094 M 301.511719 166.28125 C 292.21875 122.960938 258.871094 88.5625 216.125 77.777344 C 216.480469 79.355469 216.730469 81.054688 216.898438 82.644531 C 258.21875 93.847656 290.054688 128.078125 297.792969 170.707031 L 297.792969 170.8125 L 317.492188 170.8125 L 317.492188 166.28125 Z M 301.511719 166.28125 " fill-opacity="1" fill-rule="evenodd"/></g><g clip-path="url(#b5ac90d5b6)"><path fill="#000000" d="M 217.34375 90.308594 C 256.558594 101.929688 286.183594 135.867188 291.507812 177.402344 L 317.5 177.402344 L 317.5 179.84375 L 289.347656 179.84375 L 289.347656 179.824219 C 284.921875 138.53125 255.964844 104.582031 217.328125 92.839844 C 217.347656 92 217.347656 91.136719 217.34375 90.308594 M 57.492188 179.851562 L 57.492188 177.40625 L 83.488281 177.40625 C 89.621094 129.570312 127.976562 91.820312 176.09375 86.621094 C 175.59375 87.421875 175.15625 88.269531 174.769531 89.128906 L 174.730469 89.222656 C 127.78125 95.054688 90.691406 132.660156 85.648438 179.851562 Z M 57.492188 179.851562 " fill-opacity="1" fill-rule="evenodd"/></g><path fill="#000000" d="M 258.84375 233.546875 C 244.316406 257.777344 217.804688 274 187.5 274 C 157.195312 274 130.675781 257.777344 116.15625 233.546875 C 108 233.546875 99.84375 233.546875 91.6875 233.546875 C 108.027344 270.1875 144.777344 295.734375 187.492188 295.734375 C 230.207031 295.734375 266.957031 270.195312 283.3125 233.546875 C 275.15625 233.546875 266.996094 233.546875 258.84375 233.546875 " fill-opacity="1" fill-rule="evenodd"/><g clip-path="url(#7c87f31ab7)"><path fill="#000000" d="M 57.492188 238.078125 L 57.492188 233.546875 L 83.789062 233.546875 C 100.578125 274.300781 140.679688 302.988281 187.492188 302.988281 C 234.308594 302.988281 274.40625 274.300781 291.203125 233.546875 L 317.5 233.546875 L 317.5 238.078125 L 294.175781 238.078125 C 276.050781 278.972656 235.109375 307.5 187.492188 307.5 C 139.882812 307.5 98.9375 278.96875 80.8125 238.078125 Z M 57.492188 238.078125 " fill-opacity="1" fill-rule="evenodd"/></g><path fill="#000000" d="M 265.601562 179.859375 L 265.601562 179.394531 L 264.222656 179.207031 L 263.140625 178.222656 L 261.0625 176.546875 L 258.089844 175.679688 L 250.105469 175.679688 L 242.464844 174.117188 L 241.167969 172.441406 L 240.363281 172.441406 L 239.441406 174.175781 L 223.625 173.796875 L 220.4375 170.609375 L 219.277344 170.714844 L 214.90625 174.546875 L 209.058594 174.265625 L 200.097656 172.355469 L 192.269531 169.820312 L 141.75 171.4375 L 130.628906 171.097656 L 130.628906 172.050781 L 127.742188 172.050781 L 127.742188 171.007812 L 125.929688 170.957031 L 124.554688 169.582031 L 121.453125 172.226562 L 113.214844 179.675781 Z M 265.601562 179.859375 " fill-opacity="1" fill-rule="evenodd"/><path fill="#000000" d="M 151.320312 152.910156 C 151.320312 152.910156 154.125 153.125 157.394531 153.75 L 164.519531 154.238281 L 160.773438 154.523438 C 161.722656 154.785156 162.648438 155.085938 163.488281 155.429688 L 169.6875 155.210938 L 164.605469 155.941406 C 165.445312 156.371094 166.148438 156.851562 166.644531 157.394531 L 173.96875 157.359375 C 173.96875 157.359375 174.367188 157.777344 174.808594 158.496094 L 167.476562 158.625 C 167.648438 158.96875 167.777344 159.335938 167.882812 159.714844 L 175.417969 159.679688 C 175.558594 160.03125 175.691406 160.410156 175.789062 160.820312 L 168.105469 160.957031 C 168.128906 161.226562 168.144531 161.5 168.136719 161.773438 L 175.9375 161.675781 C 175.976562 162.058594 175.988281 162.464844 175.949219 162.878906 L 168.050781 163.023438 C 168.027344 163.21875 167.992188 163.414062 167.960938 163.609375 L 175.859375 163.570312 C 175.789062 163.941406 175.675781 164.328125 175.527344 164.71875 L 167.65625 164.855469 C 167.597656 165.058594 167.523438 165.253906 167.457031 165.441406 L 175.242188 165.371094 C 175.046875 165.753906 174.804688 166.144531 174.515625 166.542969 L 166.964844 166.59375 C 166.878906 166.765625 166.789062 166.933594 166.695312 167.089844 L 174.113281 167.058594 C 173.792969 167.441406 173.421875 167.828125 173 168.210938 L 165.808594 168.316406 C 165.367188 168.8125 164.890625 169.175781 164.410156 169.363281 C 167.617188 164.40625 167.171875 160.789062 165.515625 158.539062 C 162.929688 155.039062 156.730469 154.324219 151.320312 152.910156 M 180.246094 151.019531 C 180.246094 151.019531 183.046875 151.234375 186.320312 151.859375 L 193.445312 152.347656 L 189.703125 152.636719 C 190.652344 152.894531 191.574219 153.203125 192.421875 153.542969 L 198.617188 153.320312 L 193.535156 154.050781 C 194.375 154.480469 195.078125 154.960938 195.574219 155.503906 L 202.898438 155.46875 C 202.898438 155.46875 203.296875 155.886719 203.742188 156.605469 L 196.410156 156.734375 C 196.578125 157.082031 196.707031 157.445312 196.8125 157.824219 L 204.347656 157.789062 C 204.492188 158.140625 204.621094 158.519531 204.71875 158.929688 L 197.035156 159.066406 C 197.0625 159.335938 197.074219 159.609375 197.074219 159.882812 L 204.867188 159.785156 C 204.90625 160.167969 204.921875 160.574219 204.886719 160.992188 L 196.988281 161.132812 C 196.960938 161.328125 196.929688 161.523438 196.898438 161.71875 L 204.796875 161.675781 C 204.726562 162.054688 204.613281 162.429688 204.464844 162.820312 L 196.589844 162.957031 C 196.53125 163.160156 196.460938 163.355469 196.390625 163.546875 L 204.171875 163.472656 C 203.976562 163.859375 203.734375 164.25 203.449219 164.648438 L 195.894531 164.699219 C 195.808594 164.867188 195.71875 165.039062 195.625 165.195312 L 203.050781 165.160156 C 202.730469 165.546875 202.359375 165.929688 201.933594 166.316406 L 194.746094 166.417969 C 194.304688 166.914062 193.828125 167.28125 193.347656 167.46875 C 196.550781 162.503906 196.109375 158.890625 194.453125 156.644531 C 191.851562 153.15625 185.65625 152.433594 180.246094 151.019531 Z M 127.828125 154.664062 C 127.828125 154.664062 118.789062 162.214844 129.828125 171.644531 C 129.828125 171.644531 125.433594 166.261719 125.820312 161.375 C 126.210938 156.488281 127.828125 154.664062 127.828125 154.664062 Z M 234.605469 142.574219 L 233.148438 142.75 C 233.148438 142.75 236.53125 151.300781 232.554688 165.277344 C 232.554688 165.285156 237.925781 155.164062 234.605469 142.574219 Z M 228.917969 143.160156 L 227.457031 143.328125 C 227.457031 143.328125 230.832031 151.878906 226.863281 165.867188 C 226.859375 165.867188 232.226562 155.742188 228.917969 143.160156 Z M 152.242188 146.484375 C 152.78125 146.464844 153.316406 146.449219 153.84375 146.429688 L 153.777344 143.152344 L 152.390625 143.160156 Z M 154.703125 143.144531 L 154.855469 146.40625 C 157.402344 146.332031 159.742188 146.28125 161.359375 146.25 L 161.359375 143.105469 Z M 200.246094 94.917969 L 200.324219 86.84375 L 194.84375 90.5 L 196.019531 92.519531 Z M 205.78125 78.371094 L 205.460938 75.984375 C 205.527344 74.464844 204.863281 72.453125 203.207031 71.382812 C 201.433594 70.238281 198.957031 70.40625 196.050781 71.886719 C 192.71875 73.582031 191.539062 78.820312 191.304688 81.863281 L 199.914062 77.84375 L 200.292969 77.84375 C 200.777344 75.660156 201.757812 73.203125 202.757812 73.203125 C 203.011719 73.203125 203.296875 73.363281 203.605469 73.703125 C 204.4375 74.609375 205.433594 76.800781 205.929688 79.203125 L 205.917969 78.929688 L 206.199219 79.355469 C 206.242188 79.28125 206.28125 79.222656 206.320312 79.152344 Z M 215.503906 110.1875 L 213.804688 111.035156 L 207.175781 85.867188 L 206.152344 85.949219 L 206.378906 87.605469 C 206.574219 89.527344 206.875 91.613281 207.167969 93.445312 L 207.851562 98.523438 L 212.609375 120.480469 C 212.609375 120.480469 216.011719 122.65625 217.035156 123.59375 L 218.449219 122.285156 L 218.671875 122.074219 L 218.789062 121.972656 Z M 222.621094 143.53125 L 221.160156 143.699219 C 221.160156 143.699219 224.542969 152.25 220.570312 166.230469 C 220.5625 166.230469 225.9375 156.117188 222.621094 143.53125 Z M 217.042969 143.875 L 215.582031 144.046875 C 215.582031 144.046875 218.964844 152.597656 214.984375 166.582031 C 214.984375 166.574219 220.359375 156.460938 217.042969 143.875 Z M 150.878906 134.238281 L 163.066406 134.191406 L 162.695312 127.230469 L 150.792969 126.96875 C 150.800781 126.976562 150.867188 131.382812 150.878906 134.238281 Z M 150.652344 124.648438 L 163.074219 124.6875 L 162.523438 111.542969 L 150.195312 111.503906 Z M 178.617188 134.503906 C 178.617188 135.378906 178.617188 136.25 178.617188 137.125 L 165.886719 137.125 L 151.550781 137.214844 L 151.519531 140.375 L 187.863281 139.738281 L 187.625 125.550781 L 187.527344 124.980469 L 183.933594 124.683594 L 190.472656 105.828125 C 189.851562 105.855469 189.34375 105.867188 189.023438 105.859375 C 188.679688 105.855469 188.25 105.855469 187.792969 105.855469 L 178.765625 130.585938 L 180.382812 132.035156 L 179.191406 134.496094 L 178.617188 134.496094 Z M 181.101562 90.53125 C 181.101562 91.5625 181.90625 92.394531 182.90625 92.394531 C 183.386719 92.394531 183.835938 92.199219 184.183594 91.847656 C 184.519531 91.496094 184.710938 91.019531 184.710938 90.523438 C 184.710938 90.03125 184.519531 89.554688 184.183594 89.207031 C 183.84375 88.863281 183.386719 88.660156 182.90625 88.660156 C 181.90625 88.667969 181.101562 89.503906 181.101562 90.53125 Z M 193.050781 150.988281 C 198.324219 151.910156 206.183594 154.082031 206.140625 160.089844 C 206.074219 168.21875 193.300781 173.960938 186.320312 173.960938 L 133.902344 173.960938 C 120.859375 173.960938 114.148438 153.800781 136.847656 149.996094 C 137.308594 149.253906 138.582031 146.546875 151.21875 146.515625 L 151.21875 143.648438 L 134.199219 143.648438 L 131.328125 140.121094 L 131.328125 138.84375 L 134.644531 138.421875 L 134.890625 126.691406 L 138.351562 125.828125 L 138.59375 121.503906 L 142.871094 120.347656 L 143.3125 111.636719 L 149 109.511719 L 164.648438 109.933594 C 164.9375 113.210938 165.085938 116.496094 165.203125 119.78125 L 166.691406 117.742188 L 176.675781 89.976562 C 177.175781 88.851562 177.703125 87.925781 178.230469 87.15625 C 180.082031 83.558594 182.90625 83.210938 183.695312 83.363281 C 184.222656 83.46875 184.964844 83.792969 185.929688 84.371094 L 189.042969 82.917969 C 189.296875 80.105469 190.425781 72.1875 195.007812 69.851562 C 199.648438 67.5 202.699219 68.347656 204.445312 69.46875 C 206.570312 70.84375 207.859375 73.445312 207.734375 76.097656 L 207.066406 77.992188 C 209.089844 74.921875 210.453125 73.363281 211.125 73.363281 L 211.253906 73.378906 C 211.882812 73.503906 212.441406 73.996094 212.921875 74.851562 C 215.492188 79.472656 215.753906 95.191406 214.578125 98.289062 C 214.507812 98.46875 214.421875 98.601562 214.339844 98.699219 L 220.457031 121.996094 L 222.785156 120.210938 L 227.863281 120.210938 L 224.394531 136.894531 L 226.425781 140.1875 C 231.316406 140.019531 235.949219 139.117188 238.121094 139.953125 C 240.5 140.863281 241.574219 156.78125 236.671875 167.578125 C 236.019531 169.019531 233.492188 173.960938 233.492188 173.960938 L 231.289062 173.492188 L 233.441406 167.917969 L 230.519531 173.113281 L 229.210938 172.957031 L 229.554688 171.351562 L 228.460938 171.28125 L 229.015625 168.480469 L 227.144531 173.28125 L 225.1875 173.113281 L 225.699219 171.328125 L 223.273438 171.378906 L 223.402344 169.242188 L 221.109375 173.535156 L 219.492188 173.535156 L 220.347656 171.488281 L 217.070312 171.203125 L 217.40625 168.5625 L 215.238281 173.707031 L 213.789062 173.535156 L 214.214844 171.410156 L 211.742188 171.222656 L 212.390625 168.386719 L 209.203125 173.960938 L 205.976562 173.621094 C 207.320312 163.414062 207.5 155.75 208.121094 144.867188 L 206.992188 142.859375 L 208.992188 140.625 C 208.992188 140.625 209.261719 138.335938 210.011719 137.046875 L 208.910156 131.488281 C 208.910156 131.488281 207.890625 132.496094 206.492188 132.125 C 205.34375 131.820312 205.433594 129.167969 206.082031 127.816406 L 199.378906 105.007812 C 198.421875 105.300781 194.605469 105.621094 191.800781 105.769531 L 185.480469 123.78125 L 191.476562 123.652344 L 191.789062 142.917969 L 180.277344 142.988281 L 180.277344 146.964844 C 184.722656 148.53125 188.328125 150.164062 193.050781 150.988281 Z M 147.972656 134.25 L 147.730469 112.058594 C 145.554688 112.835938 144.882812 113.070312 144.707031 113.128906 L 143.632812 134.992188 Z M 147.972656 134.25 " fill-opacity="1" fill-rule="evenodd"/><g fill="#ffffff" fill-opacity="1"><g transform="translate(107.357491, 244.617008)"><g><path d="M 0.40625 0.5625 L 3.765625 -1.828125 L 4.8125 -0.359375 C 5.132812 0.0859375 5.335938 0.503906 5.421875 0.890625 C 5.515625 1.285156 5.488281 1.648438 5.34375 1.984375 C 5.207031 2.316406 4.953125 2.613281 4.578125 2.875 C 4.210938 3.132812 3.847656 3.273438 3.484375 3.296875 C 3.128906 3.328125 2.78125 3.234375 2.4375 3.015625 C 2.101562 2.804688 1.773438 2.476562 1.453125 2.03125 Z M 1.09375 0.75 L 1.8125 1.75 C 2.195312 2.289062 2.582031 2.613281 2.96875 2.71875 C 3.363281 2.820312 3.785156 2.710938 4.234375 2.390625 C 4.691406 2.078125 4.929688 1.71875 4.953125 1.3125 C 4.984375 0.90625 4.804688 0.429688 4.421875 -0.109375 L 3.703125 -1.109375 Z M 1.09375 0.75 "/></g></g></g><g fill="#ffffff" fill-opacity="1"><g transform="translate(111.655662, 250.505922)"><g><path d="M 0.4375 0.53125 L 3.625 -2.09375 L 5.703125 0.421875 L 5.34375 0.71875 L 3.609375 -1.375 L 2.578125 -0.53125 L 4.1875 1.40625 L 3.84375 1.703125 L 2.234375 -0.234375 L 1.140625 0.65625 L 2.875 2.75 L 2.515625 3.046875 Z M 0.4375 0.53125 "/></g></g></g><g fill="#ffffff" fill-opacity="1"><g transform="translate(115.620971, 255.235006)"><g><path d="M 1.578125 1.734375 C 1.398438 1.546875 1.238281 1.347656 1.09375 1.140625 C 0.945312 0.941406 0.832031 0.738281 0.75 0.53125 C 0.675781 0.332031 0.625 0.132812 0.59375 -0.0625 L 1.078125 -0.1875 C 1.109375 0.03125 1.160156 0.226562 1.234375 0.40625 C 1.304688 0.582031 1.398438 0.753906 1.515625 0.921875 C 1.628906 1.097656 1.765625 1.269531 1.921875 1.4375 C 2.210938 1.738281 2.476562 1.929688 2.71875 2.015625 C 2.957031 2.097656 3.160156 2.0625 3.328125 1.90625 C 3.421875 1.820312 3.472656 1.722656 3.484375 1.609375 C 3.492188 1.503906 3.46875 1.382812 3.40625 1.25 C 3.34375 1.113281 3.253906 0.96875 3.140625 0.8125 L 2.59375 0.046875 C 2.320312 -0.335938 2.179688 -0.664062 2.171875 -0.9375 C 2.160156 -1.21875 2.269531 -1.460938 2.5 -1.671875 C 2.675781 -1.835938 2.882812 -1.925781 3.125 -1.9375 C 3.375 -1.957031 3.628906 -1.894531 3.890625 -1.75 C 4.148438 -1.613281 4.40625 -1.410156 4.65625 -1.140625 C 4.820312 -0.960938 4.960938 -0.78125 5.078125 -0.59375 C 5.203125 -0.414062 5.296875 -0.234375 5.359375 -0.046875 C 5.421875 0.140625 5.457031 0.328125 5.46875 0.515625 L 4.984375 0.65625 C 4.972656 0.363281 4.910156 0.101562 4.796875 -0.125 C 4.679688 -0.363281 4.519531 -0.597656 4.3125 -0.828125 C 4.125 -1.023438 3.941406 -1.175781 3.765625 -1.28125 C 3.597656 -1.382812 3.441406 -1.4375 3.296875 -1.4375 C 3.160156 -1.4375 3.035156 -1.378906 2.921875 -1.265625 C 2.773438 -1.128906 2.710938 -0.976562 2.734375 -0.8125 C 2.753906 -0.65625 2.847656 -0.453125 3.015625 -0.203125 L 3.5625 0.546875 C 3.832031 0.929688 3.984375 1.269531 4.015625 1.5625 C 4.046875 1.851562 3.941406 2.109375 3.703125 2.328125 C 3.535156 2.484375 3.335938 2.566406 3.109375 2.578125 C 2.878906 2.585938 2.632812 2.519531 2.375 2.375 C 2.113281 2.238281 1.847656 2.023438 1.578125 1.734375 Z M 1.578125 1.734375 "/></g></g></g><g fill="#ffffff" fill-opacity="1"><g transform="translate(120.021481, 259.833984)"><g><path d="M 1.421875 1.328125 L 3.921875 -1.34375 L 2.546875 -2.625 L 2.859375 -2.96875 L 6.015625 -0.015625 L 5.703125 0.328125 L 4.34375 -0.953125 L 1.84375 1.71875 Z M 1.421875 1.328125 "/></g></g></g><g fill="#ffffff" fill-opacity="1"><g transform="translate(124.632971, 264.071603)"><g><path d="M 0.53125 0.4375 L 3.140625 -2.765625 L 4.78125 -1.4375 C 5.1875 -1.101562 5.4375 -0.769531 5.53125 -0.4375 C 5.625 -0.101562 5.546875 0.210938 5.296875 0.515625 C 5.148438 0.691406 4.972656 0.8125 4.765625 0.875 C 4.554688 0.945312 4.332031 0.941406 4.09375 0.859375 C 3.851562 0.785156 3.601562 0.644531 3.34375 0.4375 L 3.421875 0.453125 L 3.515625 0.546875 C 3.628906 0.648438 3.707031 0.765625 3.75 0.890625 C 3.800781 1.023438 3.828125 1.1875 3.828125 1.375 L 3.6875 3.015625 L 3.203125 2.609375 L 3.328125 1.046875 C 3.347656 0.921875 3.347656 0.8125 3.328125 0.71875 C 3.304688 0.625 3.257812 0.535156 3.1875 0.453125 C 3.125 0.367188 3.019531 0.269531 2.875 0.15625 L 2.046875 -0.515625 L 0.96875 0.796875 Z M 2.328125 -0.859375 L 3.484375 0.078125 C 3.796875 0.328125 4.054688 0.457031 4.265625 0.46875 C 4.484375 0.476562 4.675781 0.382812 4.84375 0.1875 C 5.007812 -0.0078125 5.054688 -0.210938 4.984375 -0.421875 C 4.921875 -0.628906 4.738281 -0.859375 4.4375 -1.109375 L 3.28125 -2.046875 Z M 2.328125 -0.859375 "/></g></g></g><g fill="#ffffff" fill-opacity="1"><g transform="translate(129.943095, 268.323594)"><g><path d="M 2.171875 1.578125 C 1.617188 1.179688 1.28125 0.769531 1.15625 0.34375 C 1.039062 -0.0703125 1.144531 -0.503906 1.46875 -0.953125 L 2.90625 -3 L 3.359375 -2.6875 L 1.921875 -0.65625 C 1.691406 -0.320312 1.617188 -0.00390625 1.703125 0.296875 C 1.796875 0.609375 2.046875 0.90625 2.453125 1.1875 C 2.859375 1.46875 3.21875 1.597656 3.53125 1.578125 C 3.851562 1.554688 4.128906 1.378906 4.359375 1.046875 L 5.796875 -0.984375 L 6.25 -0.65625 L 4.8125 1.390625 C 4.488281 1.835938 4.101562 2.078125 3.65625 2.109375 C 3.21875 2.140625 2.722656 1.960938 2.171875 1.578125 Z M 2.171875 1.578125 "/></g></g></g><g fill="#ffffff" fill-opacity="1"><g transform="translate(135.871255, 272.390389)"><g><path d="M 2.40625 1.5 C 2 1.257812 1.6875 0.972656 1.46875 0.640625 C 1.25 0.316406 1.140625 -0.0234375 1.140625 -0.390625 C 1.140625 -0.765625 1.253906 -1.140625 1.484375 -1.515625 C 1.703125 -1.890625 1.972656 -2.164062 2.296875 -2.34375 C 2.628906 -2.519531 2.992188 -2.585938 3.390625 -2.546875 C 3.785156 -2.515625 4.191406 -2.375 4.609375 -2.125 C 4.921875 -1.9375 5.175781 -1.722656 5.375 -1.484375 C 5.582031 -1.253906 5.734375 -1 5.828125 -0.71875 L 5.40625 -0.484375 C 5.289062 -0.753906 5.148438 -0.984375 4.984375 -1.171875 C 4.828125 -1.367188 4.617188 -1.546875 4.359375 -1.703125 C 3.867188 -1.992188 3.414062 -2.097656 3 -2.015625 C 2.582031 -1.929688 2.242188 -1.664062 1.984375 -1.21875 C 1.710938 -0.769531 1.640625 -0.347656 1.765625 0.046875 C 1.898438 0.441406 2.210938 0.785156 2.703125 1.078125 C 2.960938 1.234375 3.210938 1.335938 3.453125 1.390625 C 3.703125 1.453125 3.96875 1.46875 4.25 1.4375 L 4.234375 1.9375 C 3.953125 1.976562 3.65625 1.960938 3.34375 1.890625 C 3.039062 1.828125 2.726562 1.695312 2.40625 1.5 Z M 2.40625 1.5 "/></g></g></g><g fill="#ffffff" fill-opacity="1"><g transform="translate(141.728263, 275.813906)"><g><path d="M 1.734375 0.890625 L 3.390625 -2.359375 L 1.71875 -3.21875 L 1.9375 -3.640625 L 5.78125 -1.671875 L 5.5625 -1.25 L 3.890625 -2.109375 L 2.234375 1.140625 Z M 1.734375 0.890625 "/></g></g></g><g fill="#ffffff" fill-opacity="1"><g transform="translate(147.322359, 278.577588)"><g><path d="M 0.625 0.28125 L 2.3125 -3.484375 L 2.828125 -3.25 L 1.140625 0.515625 Z M 0.625 0.28125 "/></g></g></g><g fill="#ffffff" fill-opacity="1"><g transform="translate(150.728362, 280.100909)"><g><path d="M 2.640625 1.046875 C 2.296875 0.921875 2.003906 0.757812 1.765625 0.5625 C 1.523438 0.375 1.34375 0.15625 1.21875 -0.09375 C 1.101562 -0.34375 1.039062 -0.601562 1.03125 -0.875 C 1.019531 -1.15625 1.070312 -1.445312 1.1875 -1.75 C 1.300781 -2.050781 1.453125 -2.304688 1.640625 -2.515625 C 1.835938 -2.722656 2.0625 -2.878906 2.3125 -2.984375 C 2.570312 -3.085938 2.851562 -3.132812 3.15625 -3.125 C 3.46875 -3.113281 3.796875 -3.046875 4.140625 -2.921875 C 4.472656 -2.796875 4.753906 -2.632812 4.984375 -2.4375 C 5.222656 -2.238281 5.40625 -2.015625 5.53125 -1.765625 C 5.664062 -1.523438 5.734375 -1.257812 5.734375 -0.96875 C 5.742188 -0.6875 5.691406 -0.390625 5.578125 -0.078125 C 5.460938 0.222656 5.304688 0.472656 5.109375 0.671875 C 4.921875 0.867188 4.695312 1.019531 4.4375 1.125 C 4.175781 1.226562 3.894531 1.269531 3.59375 1.25 C 3.289062 1.238281 2.972656 1.171875 2.640625 1.046875 Z M 2.8125 0.59375 C 3.144531 0.71875 3.457031 0.765625 3.75 0.734375 C 4.050781 0.710938 4.304688 0.613281 4.515625 0.4375 C 4.734375 0.257812 4.90625 0.015625 5.03125 -0.296875 C 5.144531 -0.617188 5.179688 -0.914062 5.140625 -1.1875 C 5.097656 -1.46875 4.976562 -1.71875 4.78125 -1.9375 C 4.582031 -2.15625 4.3125 -2.332031 3.96875 -2.46875 C 3.625 -2.59375 3.304688 -2.640625 3.015625 -2.609375 C 2.722656 -2.578125 2.460938 -2.472656 2.234375 -2.296875 C 2.015625 -2.117188 1.847656 -1.867188 1.734375 -1.546875 C 1.609375 -1.234375 1.566406 -0.9375 1.609375 -0.65625 C 1.660156 -0.382812 1.785156 -0.140625 1.984375 0.078125 C 2.191406 0.296875 2.46875 0.46875 2.8125 0.59375 Z M 2.8125 0.59375 "/></g></g></g><g fill="#ffffff" fill-opacity="1"><g transform="translate(157.757306, 282.684478)"><g><path d="M 0.65625 0.1875 L 1.8125 -3.765625 L 2.28125 -3.625 L 4.4375 0.5625 L 4.359375 0.546875 L 5.3125 -2.734375 L 5.828125 -2.578125 L 4.671875 1.375 L 4.203125 1.234375 L 2.078125 -2.953125 L 2.15625 -2.9375 L 1.1875 0.34375 Z M 0.65625 0.1875 "/></g></g></g><g fill="#ffffff" fill-opacity="1"><g transform="translate(164.837707, 284.650981)"><g/></g></g><g fill="#ffffff" fill-opacity="1"><g transform="translate(168.42847, 285.477453)"><g><path d="M 1.953125 0.390625 C 1.640625 0.335938 1.375 0.25 1.15625 0.125 C 0.945312 0 0.796875 -0.148438 0.703125 -0.328125 C 0.609375 -0.503906 0.578125 -0.703125 0.609375 -0.921875 C 0.648438 -1.128906 0.734375 -1.300781 0.859375 -1.4375 C 0.992188 -1.570312 1.15625 -1.679688 1.34375 -1.765625 C 1.539062 -1.847656 1.738281 -1.914062 1.9375 -1.96875 L 2.15625 -2.03125 L 2.0625 -1.9375 C 1.914062 -2.113281 1.796875 -2.289062 1.703125 -2.46875 C 1.609375 -2.65625 1.578125 -2.847656 1.609375 -3.046875 C 1.640625 -3.234375 1.71875 -3.378906 1.84375 -3.484375 C 1.96875 -3.597656 2.117188 -3.675781 2.296875 -3.71875 C 2.484375 -3.769531 2.695312 -3.773438 2.9375 -3.734375 C 3.164062 -3.691406 3.359375 -3.617188 3.515625 -3.515625 C 3.671875 -3.421875 3.785156 -3.304688 3.859375 -3.171875 C 3.929688 -3.035156 3.953125 -2.882812 3.921875 -2.71875 C 3.890625 -2.5625 3.816406 -2.421875 3.703125 -2.296875 C 3.597656 -2.171875 3.453125 -2.066406 3.265625 -1.984375 C 3.078125 -1.898438 2.863281 -1.828125 2.625 -1.765625 L 2.671875 -1.84375 L 3.8125 -0.40625 L 3.734375 -0.421875 C 3.867188 -0.566406 3.988281 -0.742188 4.09375 -0.953125 C 4.207031 -1.171875 4.300781 -1.421875 4.375 -1.703125 L 4.859375 -1.609375 C 4.773438 -1.285156 4.660156 -0.992188 4.515625 -0.734375 C 4.367188 -0.484375 4.203125 -0.273438 4.015625 -0.109375 L 4 -0.203125 L 4.859375 0.859375 L 4.203125 0.734375 L 3.65625 0.0625 L 3.734375 0.078125 C 3.515625 0.242188 3.25 0.351562 2.9375 0.40625 C 2.632812 0.457031 2.304688 0.453125 1.953125 0.390625 Z M 2.0625 -0.03125 C 2.34375 0.0195312 2.597656 0.03125 2.828125 0 C 3.066406 -0.03125 3.273438 -0.113281 3.453125 -0.25 L 3.453125 -0.1875 L 2.203125 -1.75 L 2.40625 -1.703125 L 2.1875 -1.640625 C 2.019531 -1.597656 1.863281 -1.546875 1.71875 -1.484375 C 1.570312 -1.421875 1.445312 -1.34375 1.34375 -1.25 C 1.238281 -1.15625 1.175781 -1.023438 1.15625 -0.859375 C 1.113281 -0.640625 1.171875 -0.457031 1.328125 -0.3125 C 1.484375 -0.175781 1.726562 -0.0820312 2.0625 -0.03125 Z M 2.859375 -3.34375 C 2.660156 -3.382812 2.488281 -3.367188 2.34375 -3.296875 C 2.207031 -3.234375 2.125 -3.117188 2.09375 -2.953125 C 2.082031 -2.859375 2.085938 -2.757812 2.109375 -2.65625 C 2.140625 -2.5625 2.191406 -2.460938 2.265625 -2.359375 C 2.335938 -2.265625 2.421875 -2.160156 2.515625 -2.046875 L 2.390625 -2.09375 C 2.535156 -2.132812 2.679688 -2.175781 2.828125 -2.21875 C 2.984375 -2.257812 3.113281 -2.320312 3.21875 -2.40625 C 3.332031 -2.5 3.40625 -2.617188 3.4375 -2.765625 C 3.457031 -2.910156 3.414062 -3.035156 3.3125 -3.140625 C 3.207031 -3.242188 3.054688 -3.3125 2.859375 -3.34375 Z M 2.859375 -3.34375 "/></g></g></g><g fill="#ffffff" fill-opacity="1"><g transform="translate(175.152927, 286.563322)"><g/></g></g><g fill="#ffffff" fill-opacity="1"><g transform="translate(178.814341, 287.000221)"><g><path d="M 0.171875 0.015625 L 2.6875 -3.953125 L 3.203125 -3.921875 L 5.171875 0.328125 L 4.578125 0.28125 L 4.03125 -0.921875 L 4.296875 -0.75 L 1.171875 -0.953125 L 1.484375 -1.078125 L 0.765625 0.046875 Z M 2.890625 -3.40625 L 1.5625 -1.25 L 1.390625 -1.390625 L 4.140625 -1.21875 L 3.953125 -1.09375 L 2.90625 -3.40625 Z M 2.890625 -3.40625 "/></g></g></g><g fill="#ffffff" fill-opacity="1"><g transform="translate(185.984549, 287.374274)"><g><path d="M 2.34375 0.03125 C 2.082031 0.03125 1.828125 0.015625 1.578125 -0.015625 C 1.335938 -0.0546875 1.113281 -0.113281 0.90625 -0.1875 C 0.707031 -0.257812 0.53125 -0.351562 0.375 -0.46875 L 0.59375 -0.921875 C 0.78125 -0.796875 0.960938 -0.695312 1.140625 -0.625 C 1.316406 -0.5625 1.503906 -0.515625 1.703125 -0.484375 C 1.910156 -0.453125 2.128906 -0.4375 2.359375 -0.4375 C 2.773438 -0.4375 3.097656 -0.492188 3.328125 -0.609375 C 3.554688 -0.734375 3.664062 -0.910156 3.65625 -1.140625 C 3.65625 -1.273438 3.617188 -1.382812 3.546875 -1.46875 C 3.472656 -1.550781 3.363281 -1.609375 3.21875 -1.640625 C 3.082031 -1.679688 2.914062 -1.71875 2.71875 -1.75 L 1.78125 -1.875 C 1.320312 -1.9375 0.988281 -2.054688 0.78125 -2.234375 C 0.570312 -2.410156 0.46875 -2.65625 0.46875 -2.96875 C 0.457031 -3.21875 0.53125 -3.429688 0.6875 -3.609375 C 0.84375 -3.796875 1.0625 -3.941406 1.34375 -4.046875 C 1.625 -4.148438 1.953125 -4.203125 2.328125 -4.203125 C 2.566406 -4.203125 2.789062 -4.179688 3 -4.140625 C 3.21875 -4.109375 3.414062 -4.050781 3.59375 -3.96875 C 3.78125 -3.882812 3.941406 -3.785156 4.078125 -3.671875 L 3.875 -3.234375 C 3.644531 -3.410156 3.40625 -3.535156 3.15625 -3.609375 C 2.90625 -3.679688 2.625 -3.71875 2.3125 -3.71875 C 2.039062 -3.71875 1.804688 -3.691406 1.609375 -3.640625 C 1.421875 -3.585938 1.28125 -3.503906 1.1875 -3.390625 C 1.09375 -3.285156 1.046875 -3.15625 1.046875 -3 C 1.046875 -2.800781 1.113281 -2.65625 1.25 -2.5625 C 1.382812 -2.476562 1.601562 -2.410156 1.90625 -2.359375 L 2.8125 -2.234375 C 3.28125 -2.179688 3.628906 -2.066406 3.859375 -1.890625 C 4.097656 -1.722656 4.21875 -1.476562 4.21875 -1.15625 C 4.226562 -0.914062 4.15625 -0.707031 4 -0.53125 C 3.851562 -0.351562 3.640625 -0.210938 3.359375 -0.109375 C 3.078125 -0.015625 2.738281 0.03125 2.34375 0.03125 Z M 2.34375 0.03125 "/></g></g></g><g fill="#ffffff" fill-opacity="1"><g transform="translate(192.353394, 287.274721)"><g><path d="M 0.6875 -0.046875 L 0.375 -4.15625 L 2.484375 -4.328125 C 3.015625 -4.359375 3.425781 -4.296875 3.71875 -4.140625 C 4.007812 -3.984375 4.164062 -3.734375 4.1875 -3.390625 C 4.207031 -3.117188 4.132812 -2.894531 3.96875 -2.71875 C 3.800781 -2.550781 3.5625 -2.429688 3.25 -2.359375 L 3.25 -2.40625 C 3.488281 -2.394531 3.691406 -2.351562 3.859375 -2.28125 C 4.035156 -2.21875 4.171875 -2.117188 4.265625 -1.984375 C 4.367188 -1.847656 4.429688 -1.675781 4.453125 -1.46875 C 4.460938 -1.226562 4.410156 -1.019531 4.296875 -0.84375 C 4.191406 -0.664062 4.019531 -0.523438 3.78125 -0.421875 C 3.550781 -0.316406 3.253906 -0.25 2.890625 -0.21875 Z M 1.203125 -0.546875 L 2.828125 -0.671875 C 2.898438 -0.671875 2.984375 -0.675781 3.078125 -0.6875 C 3.179688 -0.707031 3.28125 -0.726562 3.375 -0.75 C 3.46875 -0.78125 3.554688 -0.828125 3.640625 -0.890625 C 3.722656 -0.953125 3.785156 -1.023438 3.828125 -1.109375 C 3.867188 -1.203125 3.882812 -1.316406 3.875 -1.453125 C 3.863281 -1.597656 3.828125 -1.710938 3.765625 -1.796875 C 3.710938 -1.890625 3.640625 -1.953125 3.546875 -1.984375 C 3.460938 -2.023438 3.367188 -2.054688 3.265625 -2.078125 C 3.171875 -2.097656 3.078125 -2.109375 2.984375 -2.109375 C 2.890625 -2.109375 2.804688 -2.101562 2.734375 -2.09375 L 1.09375 -1.96875 Z M 1.0625 -2.40625 L 2.578125 -2.515625 C 2.960938 -2.546875 3.234375 -2.625 3.390625 -2.75 C 3.554688 -2.882812 3.628906 -3.0625 3.609375 -3.28125 C 3.597656 -3.519531 3.5 -3.6875 3.3125 -3.78125 C 3.125 -3.875 2.84375 -3.90625 2.46875 -3.875 L 0.953125 -3.765625 Z M 1.0625 -2.40625 "/></g></g></g><g fill="#ffffff" fill-opacity="1"><g transform="translate(199.181876, 286.684185)"><g><path d="M 0.6875 -0.09375 L 0.09375 -4.171875 L 3.3125 -4.640625 L 3.375 -4.203125 L 0.6875 -3.8125 L 0.890625 -2.46875 L 3.390625 -2.828125 L 3.453125 -2.390625 L 0.953125 -2.03125 L 1.15625 -0.640625 L 3.84375 -1.03125 L 3.90625 -0.5625 Z M 0.6875 -0.09375 "/></g></g></g><g fill="#ffffff" fill-opacity="1"><g transform="translate(205.281606, 285.748647)"><g><path d="M 2.3125 -0.4375 C 2.050781 -0.382812 1.796875 -0.347656 1.546875 -0.328125 C 1.296875 -0.316406 1.0625 -0.328125 0.84375 -0.359375 C 0.632812 -0.398438 0.441406 -0.457031 0.265625 -0.53125 L 0.390625 -1.03125 C 0.597656 -0.945312 0.796875 -0.882812 0.984375 -0.84375 C 1.171875 -0.8125 1.363281 -0.800781 1.5625 -0.8125 C 1.769531 -0.820312 1.988281 -0.847656 2.21875 -0.890625 C 2.625 -0.972656 2.925781 -1.097656 3.125 -1.265625 C 3.332031 -1.429688 3.410156 -1.625 3.359375 -1.84375 C 3.335938 -1.976562 3.28125 -2.078125 3.1875 -2.140625 C 3.09375 -2.210938 2.972656 -2.253906 2.828125 -2.265625 C 2.691406 -2.273438 2.519531 -2.273438 2.3125 -2.265625 L 1.375 -2.1875 C 0.90625 -2.15625 0.550781 -2.207031 0.3125 -2.34375 C 0.0703125 -2.476562 -0.078125 -2.695312 -0.140625 -3 C -0.191406 -3.238281 -0.15625 -3.46875 -0.03125 -3.6875 C 0.0820312 -3.90625 0.265625 -4.085938 0.515625 -4.234375 C 0.773438 -4.390625 1.085938 -4.503906 1.453125 -4.578125 C 1.679688 -4.628906 1.898438 -4.65625 2.109375 -4.65625 C 2.328125 -4.65625 2.535156 -4.632812 2.734375 -4.59375 C 2.941406 -4.5625 3.117188 -4.5 3.265625 -4.40625 L 3.15625 -3.9375 C 2.894531 -4.0625 2.632812 -4.132812 2.375 -4.15625 C 2.113281 -4.1875 1.832031 -4.171875 1.53125 -4.109375 C 1.257812 -4.054688 1.035156 -3.984375 0.859375 -3.890625 C 0.679688 -3.796875 0.554688 -3.6875 0.484375 -3.5625 C 0.410156 -3.445312 0.390625 -3.3125 0.421875 -3.15625 C 0.460938 -2.957031 0.554688 -2.828125 0.703125 -2.765625 C 0.859375 -2.703125 1.085938 -2.675781 1.390625 -2.6875 L 2.3125 -2.75 C 2.78125 -2.789062 3.144531 -2.75 3.40625 -2.625 C 3.675781 -2.507812 3.84375 -2.289062 3.90625 -1.96875 C 3.957031 -1.738281 3.925781 -1.519531 3.8125 -1.3125 C 3.707031 -1.113281 3.523438 -0.9375 3.265625 -0.78125 C 3.015625 -0.632812 2.695312 -0.519531 2.3125 -0.4375 Z M 2.3125 -0.4375 "/></g></g></g><g fill="#ffffff" fill-opacity="1"><g transform="translate(211.496385, 284.374168)"><g><path d="M 1.875 -0.53125 L 0.890625 -4.046875 L -0.921875 -3.53125 L -1.046875 -3.984375 L 3.125 -5.15625 L 3.25 -4.703125 L 1.4375 -4.1875 L 2.421875 -0.671875 Z M 1.875 -0.53125 "/></g></g></g><g fill="#ffffff" fill-opacity="1"><g transform="translate(217.520111, 282.639907)"><g><path d="M 2.6875 -0.90625 C 2.34375 -0.789062 2.019531 -0.726562 1.71875 -0.71875 C 1.414062 -0.707031 1.132812 -0.753906 0.875 -0.859375 C 0.625 -0.972656 0.398438 -1.128906 0.203125 -1.328125 C 0.015625 -1.535156 -0.132812 -1.789062 -0.25 -2.09375 C -0.351562 -2.394531 -0.394531 -2.6875 -0.375 -2.96875 C -0.363281 -3.257812 -0.289062 -3.523438 -0.15625 -3.765625 C -0.03125 -4.015625 0.144531 -4.234375 0.375 -4.421875 C 0.613281 -4.617188 0.90625 -4.773438 1.25 -4.890625 C 1.582031 -5.015625 1.90625 -5.078125 2.21875 -5.078125 C 2.53125 -5.085938 2.8125 -5.039062 3.0625 -4.9375 C 3.320312 -4.832031 3.546875 -4.675781 3.734375 -4.46875 C 3.921875 -4.257812 4.066406 -4 4.171875 -3.6875 C 4.285156 -3.382812 4.335938 -3.09375 4.328125 -2.8125 C 4.316406 -2.53125 4.242188 -2.265625 4.109375 -2.015625 C 3.984375 -1.773438 3.796875 -1.5625 3.546875 -1.375 C 3.304688 -1.1875 3.019531 -1.03125 2.6875 -0.90625 Z M 2.53125 -1.359375 C 2.863281 -1.484375 3.128906 -1.648438 3.328125 -1.859375 C 3.535156 -2.078125 3.664062 -2.320312 3.71875 -2.59375 C 3.78125 -2.863281 3.75 -3.160156 3.625 -3.484375 C 3.507812 -3.804688 3.34375 -4.0625 3.125 -4.25 C 2.90625 -4.4375 2.648438 -4.546875 2.359375 -4.578125 C 2.078125 -4.609375 1.765625 -4.5625 1.421875 -4.4375 C 1.066406 -4.3125 0.785156 -4.144531 0.578125 -3.9375 C 0.378906 -3.726562 0.253906 -3.484375 0.203125 -3.203125 C 0.148438 -2.921875 0.179688 -2.617188 0.296875 -2.296875 C 0.421875 -1.972656 0.585938 -1.722656 0.796875 -1.546875 C 1.003906 -1.367188 1.253906 -1.257812 1.546875 -1.21875 C 1.847656 -1.1875 2.175781 -1.234375 2.53125 -1.359375 Z M 2.53125 -1.359375 "/></g></g></g><g fill="#ffffff" fill-opacity="1"><g transform="translate(224.531921, 280.032748)"><g><path d="M 2.15625 -0.90625 C 1.914062 -0.800781 1.675781 -0.71875 1.4375 -0.65625 C 1.195312 -0.59375 0.96875 -0.550781 0.75 -0.53125 C 0.539062 -0.519531 0.34375 -0.535156 0.15625 -0.578125 L 0.171875 -1.078125 C 0.390625 -1.046875 0.59375 -1.03125 0.78125 -1.03125 C 0.976562 -1.03125 1.175781 -1.054688 1.375 -1.109375 C 1.570312 -1.171875 1.773438 -1.25 1.984375 -1.34375 C 2.367188 -1.507812 2.640625 -1.691406 2.796875 -1.890625 C 2.960938 -2.085938 3 -2.289062 2.90625 -2.5 C 2.851562 -2.625 2.773438 -2.707031 2.671875 -2.75 C 2.578125 -2.789062 2.453125 -2.800781 2.296875 -2.78125 C 2.148438 -2.769531 1.984375 -2.742188 1.796875 -2.703125 L 0.890625 -2.4375 C 0.441406 -2.300781 0.0859375 -2.273438 -0.171875 -2.359375 C -0.441406 -2.441406 -0.640625 -2.628906 -0.765625 -2.921875 C -0.867188 -3.148438 -0.882812 -3.378906 -0.8125 -3.609375 C -0.738281 -3.835938 -0.59375 -4.050781 -0.375 -4.25 C -0.15625 -4.457031 0.125 -4.632812 0.46875 -4.78125 C 0.6875 -4.875 0.898438 -4.945312 1.109375 -5 C 1.328125 -5.050781 1.535156 -5.070312 1.734375 -5.0625 C 1.929688 -5.0625 2.117188 -5.035156 2.296875 -4.984375 L 2.265625 -4.5 C 1.992188 -4.570312 1.726562 -4.59375 1.46875 -4.5625 C 1.207031 -4.539062 0.929688 -4.46875 0.640625 -4.34375 C 0.390625 -4.226562 0.1875 -4.109375 0.03125 -3.984375 C -0.113281 -3.859375 -0.210938 -3.726562 -0.265625 -3.59375 C -0.316406 -3.457031 -0.3125 -3.320312 -0.25 -3.1875 C -0.164062 -3 -0.046875 -2.890625 0.109375 -2.859375 C 0.273438 -2.828125 0.503906 -2.847656 0.796875 -2.921875 L 1.703125 -3.171875 C 2.148438 -3.296875 2.515625 -3.328125 2.796875 -3.265625 C 3.078125 -3.210938 3.285156 -3.039062 3.421875 -2.75 C 3.515625 -2.53125 3.523438 -2.304688 3.453125 -2.078125 C 3.390625 -1.859375 3.25 -1.644531 3.03125 -1.4375 C 2.8125 -1.238281 2.519531 -1.0625 2.15625 -0.90625 Z M 2.15625 -0.90625 "/></g></g></g><g fill="#ffffff" fill-opacity="1"><g transform="translate(230.302172, 277.393074)"><g/></g></g><g fill="#ffffff" fill-opacity="1"><g transform="translate(233.586597, 275.72323)"><g><path d="M 0.59375 -0.34375 L -1.46875 -3.921875 L 0.359375 -4.96875 C 0.816406 -5.238281 1.21875 -5.359375 1.5625 -5.328125 C 1.90625 -5.296875 2.175781 -5.113281 2.375 -4.78125 C 2.488281 -4.570312 2.535156 -4.359375 2.515625 -4.140625 C 2.503906 -3.921875 2.421875 -3.710938 2.265625 -3.515625 C 2.109375 -3.328125 1.890625 -3.144531 1.609375 -2.96875 L 1.640625 -3.046875 L 1.765625 -3.09375 C 1.898438 -3.15625 2.039062 -3.1875 2.1875 -3.1875 C 2.332031 -3.1875 2.488281 -3.15625 2.65625 -3.09375 L 4.125 -2.375 L 3.578125 -2.0625 L 2.171875 -2.75 C 2.054688 -2.800781 1.953125 -2.832031 1.859375 -2.84375 C 1.765625 -2.851562 1.664062 -2.84375 1.5625 -2.8125 C 1.457031 -2.78125 1.328125 -2.71875 1.171875 -2.625 L 0.234375 -2.09375 L 1.078125 -0.625 Z M 0.015625 -2.484375 L 1.328125 -3.234375 C 1.660156 -3.429688 1.867188 -3.628906 1.953125 -3.828125 C 2.046875 -4.023438 2.03125 -4.238281 1.90625 -4.46875 C 1.769531 -4.695312 1.59375 -4.816406 1.375 -4.828125 C 1.164062 -4.835938 0.890625 -4.742188 0.546875 -4.546875 L -0.75 -3.8125 Z M 0.015625 -2.484375 "/></g></g></g><g fill="#ffffff" fill-opacity="1"><g transform="translate(239.439372, 272.271617)"><g><path d="M 0.578125 -0.375 L -1.71875 -3.796875 L 0.984375 -5.625 L 1.234375 -5.25 L -1.015625 -3.734375 L -0.265625 -2.625 L 1.8125 -4.015625 L 2.0625 -3.640625 L -0.015625 -2.25 L 0.765625 -1.078125 L 3.015625 -2.59375 L 3.28125 -2.203125 Z M 0.578125 -0.375 "/></g></g></g><g fill="#ffffff" fill-opacity="1"><g transform="translate(244.563613, 268.80637)"><g><path d="M 0.546875 -0.4375 L -2 -3.6875 L -1.546875 -4.03125 L 1.890625 -2.890625 L 1.765625 -2.796875 L 1.484375 -6.40625 L 1.9375 -6.75 L 4.484375 -3.5 L 4.0625 -3.171875 L 1.953125 -5.859375 L 2 -5.90625 L 2.265625 -2.578125 L 1.984375 -2.359375 L -1.203125 -3.40625 L -1.140625 -3.453125 L 0.96875 -0.765625 Z M 0.546875 -0.4375 "/></g></g></g><g fill="#ffffff" fill-opacity="1"><g transform="translate(250.972731, 263.675702)"><g><path d="M 2.125 -1.890625 C 1.851562 -1.648438 1.578125 -1.460938 1.296875 -1.328125 C 1.023438 -1.203125 0.75 -1.132812 0.46875 -1.125 C 0.1875 -1.125 -0.078125 -1.179688 -0.328125 -1.296875 C -0.585938 -1.421875 -0.828125 -1.601562 -1.046875 -1.84375 C -1.265625 -2.082031 -1.421875 -2.332031 -1.515625 -2.59375 C -1.609375 -2.863281 -1.644531 -3.132812 -1.625 -3.40625 C -1.601562 -3.6875 -1.519531 -3.960938 -1.375 -4.234375 C -1.226562 -4.503906 -1.019531 -4.757812 -0.75 -5 C -0.488281 -5.25 -0.21875 -5.4375 0.0625 -5.5625 C 0.34375 -5.6875 0.617188 -5.75 0.890625 -5.75 C 1.171875 -5.75 1.4375 -5.691406 1.6875 -5.578125 C 1.945312 -5.460938 2.1875 -5.28125 2.40625 -5.03125 C 2.625 -4.789062 2.78125 -4.535156 2.875 -4.265625 C 2.976562 -4.003906 3.019531 -3.738281 3 -3.46875 C 2.976562 -3.195312 2.890625 -2.925781 2.734375 -2.65625 C 2.585938 -2.394531 2.382812 -2.140625 2.125 -1.890625 Z M 1.796875 -2.25 C 2.054688 -2.5 2.238281 -2.757812 2.34375 -3.03125 C 2.445312 -3.300781 2.46875 -3.570312 2.40625 -3.84375 C 2.351562 -4.113281 2.207031 -4.375 1.96875 -4.625 C 1.738281 -4.875 1.488281 -5.039062 1.21875 -5.125 C 0.945312 -5.21875 0.671875 -5.222656 0.390625 -5.140625 C 0.109375 -5.054688 -0.160156 -4.890625 -0.421875 -4.640625 C -0.703125 -4.390625 -0.890625 -4.128906 -0.984375 -3.859375 C -1.085938 -3.585938 -1.109375 -3.3125 -1.046875 -3.03125 C -0.992188 -2.75 -0.851562 -2.484375 -0.625 -2.234375 C -0.382812 -1.984375 -0.132812 -1.816406 0.125 -1.734375 C 0.394531 -1.648438 0.671875 -1.648438 0.953125 -1.734375 C 1.234375 -1.828125 1.515625 -2 1.796875 -2.25 Z M 1.796875 -2.25 "/></g></g></g><g fill="#ffffff" fill-opacity="1"><g transform="translate(256.417216, 258.540251)"><g><path d="M 1.53125 -1.625 L -3.015625 -2.8125 L -2.578125 -3.28125 L 1.375 -2.234375 L 1.28125 -2.140625 L -0.046875 -6 L 0.390625 -6.453125 L 1.875 -2.015625 Z M 1.53125 -1.625 "/></g></g></g><g fill="#ffffff" fill-opacity="1"><g transform="translate(261.014464, 253.53425)"><g><path d="M 0.109375 -0.140625 L -1.6875 -4.484375 L -1.359375 -4.875 L 3.25 -4.03125 L 2.890625 -3.578125 L 1.59375 -3.828125 L 1.875 -3.953125 L -0.09375 -1.5 L -0.015625 -1.828125 L 0.484375 -0.59375 Z M -1.109375 -4.328125 L -0.109375 -2 L -0.328125 -1.9375 L 1.40625 -4.078125 L 1.390625 -3.859375 L -1.09375 -4.34375 Z M -1.109375 -4.328125 "/></g></g></g><g fill="#ffffff" fill-opacity="1"><g transform="translate(265.455332, 247.897504)"><g><path d="M 0.390625 -0.5625 L -2.984375 -2.9375 L -2.65625 -3.390625 L 0.328125 -1.296875 L 1.84375 -3.46875 L 2.234375 -3.1875 Z M 0.390625 -0.5625 "/></g></g></g><g fill="#000000" fill-opacity="1"><g transform="translate(110.67296, 222.62063)"><g><path d="M 14.546875 -11.828125 L 10.5 -7.609375 L 10.5 0 L 3.578125 0 L 3.578125 -30.125 L 10.5 -30.125 L 10.5 -16.046875 L 23.84375 -30.125 L 31.578125 -30.125 L 19.109375 -16.703125 L 32.3125 0 L 24.1875 0 Z M 14.546875 -11.828125 "/></g></g></g><g fill="#000000" fill-opacity="1"><g transform="translate(147.714877, 222.62063)"><g/></g></g><g fill="#000000" fill-opacity="1"><g transform="translate(165.096709, 222.62063)"><g><path d="M 30.984375 0 L 30.9375 -18.078125 L 22.078125 -3.1875 L 18.9375 -3.1875 L 10.109375 -17.6875 L 10.109375 0 L 3.578125 0 L 3.578125 -30.125 L 9.34375 -30.125 L 20.609375 -11.40625 L 31.71875 -30.125 L 37.4375 -30.125 L 37.515625 0 Z M 30.984375 0 "/></g></g></g><g fill="#000000" fill-opacity="1"><g transform="translate(211.387896, 222.62063)"><g/></g></g><g fill="#000000" fill-opacity="1"><g transform="translate(228.769729, 222.62063)"><g><path d="M 3.578125 -30.125 L 17.25 -30.125 C 20.519531 -30.125 23.410156 -29.5 25.921875 -28.25 C 28.429688 -27 30.378906 -25.238281 31.765625 -22.96875 C 33.160156 -20.707031 33.859375 -18.070312 33.859375 -15.0625 C 33.859375 -12.050781 33.160156 -9.410156 31.765625 -7.140625 C 30.378906 -4.878906 28.429688 -3.125 25.921875 -1.875 C 23.410156 -0.625 20.519531 0 17.25 0 L 3.578125 0 Z M 16.90625 -5.71875 C 19.914062 -5.71875 22.316406 -6.554688 24.109375 -8.234375 C 25.910156 -9.910156 26.8125 -12.1875 26.8125 -15.0625 C 26.8125 -17.925781 25.910156 -20.195312 24.109375 -21.875 C 22.316406 -23.5625 19.914062 -24.40625 16.90625 -24.40625 L 10.546875 -24.40625 L 10.546875 -5.71875 Z M 16.90625 -5.71875 "/></g></g></g><g fill="#000000" fill-opacity="1"><g transform="translate(163.979777, 256.128911)"><g><path d="M 6.3125 -14.296875 L 6.3125 0 L 3 0 L 3 -11.640625 L 0.140625 -11.640625 L 0.140625 -14.296875 Z M 6.3125 -14.296875 "/></g></g></g><g fill="#000000" fill-opacity="1"><g transform="translate(171.98272, 256.128911)"><g><path d="M 5.8125 -14.546875 C 7.820312 -14.546875 9.390625 -13.9375 10.515625 -12.71875 C 11.648438 -11.5 12.21875 -9.742188 12.21875 -7.453125 C 12.21875 -5.835938 11.910156 -4.445312 11.296875 -3.28125 C 10.691406 -2.125 9.835938 -1.242188 8.734375 -0.640625 C 7.640625 -0.046875 6.367188 0.25 4.921875 0.25 C 4.160156 0.25 3.429688 0.164062 2.734375 0 C 2.035156 -0.175781 1.441406 -0.421875 0.953125 -0.734375 L 2.1875 -3.171875 C 2.882812 -2.691406 3.773438 -2.453125 4.859375 -2.453125 C 6.066406 -2.453125 7.023438 -2.804688 7.734375 -3.515625 C 8.441406 -4.234375 8.828125 -5.265625 8.890625 -6.609375 C 8.023438 -5.753906 6.835938 -5.328125 5.328125 -5.328125 C 4.421875 -5.328125 3.59375 -5.507812 2.84375 -5.875 C 2.09375 -6.25 1.5 -6.769531 1.0625 -7.4375 C 0.625 -8.113281 0.40625 -8.894531 0.40625 -9.78125 C 0.40625 -10.738281 0.644531 -11.578125 1.125 -12.296875 C 1.601562 -13.015625 2.253906 -13.566406 3.078125 -13.953125 C 3.898438 -14.347656 4.8125 -14.546875 5.8125 -14.546875 Z M 6.0625 -7.796875 C 6.78125 -7.796875 7.367188 -7.992188 7.828125 -8.390625 C 8.285156 -8.796875 8.515625 -9.316406 8.515625 -9.953125 C 8.515625 -10.578125 8.289062 -11.082031 7.84375 -11.46875 C 7.40625 -11.863281 6.800781 -12.0625 6.03125 -12.0625 C 5.320312 -12.0625 4.742188 -11.867188 4.296875 -11.484375 C 3.859375 -11.109375 3.640625 -10.597656 3.640625 -9.953125 C 3.640625 -9.296875 3.859375 -8.769531 4.296875 -8.375 C 4.742188 -7.988281 5.332031 -7.796875 6.0625 -7.796875 Z M 6.0625 -7.796875 "/></g></g></g><g fill="#000000" fill-opacity="1"><g transform="translate(184.987511, 256.128911)"><g><path d="M 5.8125 -14.546875 C 7.820312 -14.546875 9.390625 -13.9375 10.515625 -12.71875 C 11.648438 -11.5 12.21875 -9.742188 12.21875 -7.453125 C 12.21875 -5.835938 11.910156 -4.445312 11.296875 -3.28125 C 10.691406 -2.125 9.835938 -1.242188 8.734375 -0.640625 C 7.640625 -0.046875 6.367188 0.25 4.921875 0.25 C 4.160156 0.25 3.429688 0.164062 2.734375 0 C 2.035156 -0.175781 1.441406 -0.421875 0.953125 -0.734375 L 2.1875 -3.171875 C 2.882812 -2.691406 3.773438 -2.453125 4.859375 -2.453125 C 6.066406 -2.453125 7.023438 -2.804688 7.734375 -3.515625 C 8.441406 -4.234375 8.828125 -5.265625 8.890625 -6.609375 C 8.023438 -5.753906 6.835938 -5.328125 5.328125 -5.328125 C 4.421875 -5.328125 3.59375 -5.507812 2.84375 -5.875 C 2.09375 -6.25 1.5 -6.769531 1.0625 -7.4375 C 0.625 -8.113281 0.40625 -8.894531 0.40625 -9.78125 C 0.40625 -10.738281 0.644531 -11.578125 1.125 -12.296875 C 1.601562 -13.015625 2.253906 -13.566406 3.078125 -13.953125 C 3.898438 -14.347656 4.8125 -14.546875 5.8125 -14.546875 Z M 6.0625 -7.796875 C 6.78125 -7.796875 7.367188 -7.992188 7.828125 -8.390625 C 8.285156 -8.796875 8.515625 -9.316406 8.515625 -9.953125 C 8.515625 -10.578125 8.289062 -11.082031 7.84375 -11.46875 C 7.40625 -11.863281 6.800781 -12.0625 6.03125 -12.0625 C 5.320312 -12.0625 4.742188 -11.867188 4.296875 -11.484375 C 3.859375 -11.109375 3.640625 -10.597656 3.640625 -9.953125 C 3.640625 -9.296875 3.859375 -8.769531 4.296875 -8.375 C 4.742188 -7.988281 5.332031 -7.796875 6.0625 -7.796875 Z M 6.0625 -7.796875 "/></g></g></g><g fill="#000000" fill-opacity="1"><g transform="translate(197.992302, 256.128911)"><g><path d="M 5.8125 -14.546875 C 7.820312 -14.546875 9.390625 -13.9375 10.515625 -12.71875 C 11.648438 -11.5 12.21875 -9.742188 12.21875 -7.453125 C 12.21875 -5.835938 11.910156 -4.445312 11.296875 -3.28125 C 10.691406 -2.125 9.835938 -1.242188 8.734375 -0.640625 C 7.640625 -0.046875 6.367188 0.25 4.921875 0.25 C 4.160156 0.25 3.429688 0.164062 2.734375 0 C 2.035156 -0.175781 1.441406 -0.421875 0.953125 -0.734375 L 2.1875 -3.171875 C 2.882812 -2.691406 3.773438 -2.453125 4.859375 -2.453125 C 6.066406 -2.453125 7.023438 -2.804688 7.734375 -3.515625 C 8.441406 -4.234375 8.828125 -5.265625 8.890625 -6.609375 C 8.023438 -5.753906 6.835938 -5.328125 5.328125 -5.328125 C 4.421875 -5.328125 3.59375 -5.507812 2.84375 -5.875 C 2.09375 -6.25 1.5 -6.769531 1.0625 -7.4375 C 0.625 -8.113281 0.40625 -8.894531 0.40625 -9.78125 C 0.40625 -10.738281 0.644531 -11.578125 1.125 -12.296875 C 1.601562 -13.015625 2.253906 -13.566406 3.078125 -13.953125 C 3.898438 -14.347656 4.8125 -14.546875 5.8125 -14.546875 Z M 6.0625 -7.796875 C 6.78125 -7.796875 7.367188 -7.992188 7.828125 -8.390625 C 8.285156 -8.796875 8.515625 -9.316406 8.515625 -9.953125 C 8.515625 -10.578125 8.289062 -11.082031 7.84375 -11.46875 C 7.40625 -11.863281 6.800781 -12.0625 6.03125 -12.0625 C 5.320312 -12.0625 4.742188 -11.867188 4.296875 -11.484375 C 3.859375 -11.109375 3.640625 -10.597656 3.640625 -9.953125 C 3.640625 -9.296875 3.859375 -8.769531 4.296875 -8.375 C 4.742188 -7.988281 5.332031 -7.796875 6.0625 -7.796875 Z M 6.0625 -7.796875 "/></g></g></g><g clip-path="url(#900bfc2ecd)"><g clip-path="url(#375d242952)"><path fill="#000000" d="M 154.109375 247.0625 L 159.800781 247.0625 L 159.800781 252.753906 L 154.109375 252.753906 Z M 154.109375 247.0625 " fill-opacity="1" fill-rule="nonzero"/></g></g><g clip-path="url(#de78803e4e)"><g clip-path="url(#cdf365cc94)"><path fill="#000000" d="M 215.199219 247.0625 L 220.890625 247.0625 L 220.890625 252.753906 L 215.199219 252.753906 Z M 215.199219 247.0625 " fill-opacity="1" fill-rule="nonzero"/></g></g></svg>